<svg xmlns="http://www.w3.org/2000/svg" width="1200" height="620" viewBox="0 0 1200 620"><style>text{font-family:Arial,sans-serif;fill:#102030} .box{fill:#fff;stroke:#102030;stroke-width:2;rx:12} .title{font-size:28px;font-weight:700}.label{font-size:18px;font-weight:700}.small{font-size:15px}.arrow{stroke:#52606d;stroke-width:3;fill:none;marker-end:url(#a)}</style><defs><marker id="a" markerWidth="10" markerHeight="10" refX="9" refY="3" orient="auto"><path d="M0,0 L10,3 L0,6 z" fill="#52606d"/></marker></defs><text x="40" y="45" class="title">1Gov — Sanitized Cloud & Disaster Recovery Architecture</text><rect x="60" y="90" width="180" height="80" class="box"/><text x="95" y="125" class="label">Users</text><text x="90" y="150" class="small">Web / API access</text><rect x="300" y="90" width="190" height="80" class="box"/><text x="335" y="125" class="label">DNS / Traffic</text><text x="325" y="150" class="small">Approved redirection</text><rect x="550" y="90" width="190" height="80" class="box"/><text x="595" y="125" class="label">NGINX</text><text x="580" y="150" class="small">Reverse proxy</text><rect x="800" y="90" width="190" height="80" class="box"/><text x="840" y="125" class="label">Application</text><text x="830" y="150" class="small">Service layer</text><rect x="800" y="260" width="190" height="80" class="box"/><text x="850" y="295" class="label">Database</text><text x="825" y="320" class="small">Primary data layer</text><rect x="470" y="430" width="260" height="90" class="box"/><text x="535" y="465" class="label">DR Environment</text><text x="500" y="492" class="small">DR proxy • app • database</text><path d="M240 130H300M490 130H550M740 130H800M895 170V260M800 300H730V430" class="arrow"/><text x="70" y="575" class="small">Sanitized view — excludes private IPs, credentials, proprietary configuration and customer-sensitive details.</text></svg>